<svg width="52" height="27" viewBox="0 0 52 27" fill="none" xmlns="http://www.w3.org/2000/svg">
<path d="M9.61279 18.2315L50.8019 17.2685C52.3965 17.2343 52.4023 14.7898 50.8019 14.824L18.6722 15.5762L9.61279 15.7756C8.01815 15.8269 8.01237 18.2714 9.61279 18.2315ZM0.611168 18.3512C6.28485 20.9838 11.8584 23.812 17.3318 26.8358C18.7184 27.6051 19.9722 25.4625 18.5798 24.7218C13.6225 21.979 8.58437 19.4035 3.46534 16.995C8.63124 12.4515 13.2807 7.36732 17.3318 1.83213C17.4948 1.55106 17.5395 1.21812 17.4564 0.904863C17.3732 0.59161 17.1687 0.323036 16.8869 0.156862C16.6018 0.000747681 16.2665 -0.0407639 15.9511 0.0409851C15.6357 0.122732 15.3645 0.32143 15.194 0.595627C10.8999 6.43355 5.91953 11.749 0.356953 16.4309C0.224522 16.5641 0.124516 16.7252 0.0644951 16.9021C0.00447845 17.079 -0.0139847 17.2671 0.0105019 17.452C0.0349884 17.637 0.101788 17.8141 0.205849 17.9698C0.30991 18.1256 0.448505 18.256 0.611168 18.3512Z" fill="#57595C"/>
</svg>
